# xmcd
#
# Track frame offsets: 
#        180
#        17376
#        36639
#        53284
#        69035
#        92303
#        109721
#        128243
#        143665
#        163641
#        177135
#
# Disc length: 2773 seconds
#
# Revision: 0
# Processed by: cddbd v1.5.2PL0 Copyright (c) Steve Scherf et al.
# Submitted via: ExactAudioCopy v1.3
#
DISCID=7b0ad30b
DTITLE=Jimmy Bryant - Jimmy Bryant
DYEAR=1996
DGENRE=Country
TTITLE0=I Wanna Know
TTITLE1=When Will The Time Be Right
TTITLE2=Gripes My Bottom
TTITLE3=Leave Me Alone
TTITLE4=Let Me Be The One
TTITLE5=Thunder Buns
TTITLE6=I Feel Young Again
TTITLE7=Holy Cow, Wow
TTITLE8=Boo Hoo
TTITLE9=The Bithc Is A Witch
TTITLE10=I'll Get Over You
EXTD=
EXTT0=
EXTT1=
EXTT2=
EXTT3=
EXTT4=
EXTT5=
EXTT6=
EXTT7=
EXTT8=
EXTT9=
EXTT10=
PLAYORDER=
